<svg width="28" height="31" viewBox="0 0 28 31" fill="none" xmlns="http://www.w3.org/2000/svg">
<path d="M19.4444 23H8.55556C8.08889 23 7.77778 23.2727 7.77778 23.6818C7.77778 24.0909 8.08889 24.3636 8.55556 24.3636H19.4444C19.9111 24.3636 20.2222 24.0909 20.2222 23.6818C20.2222 23.2727 19.9111 23 19.4444 23ZM24.8889 3.22727H18.4333C17.8111 1.65909 16.1 0.5 14 0.5C11.9 0.5 10.2667 1.65909 9.56667 3.22727H3.11111C1.4 3.22727 0 4.45455 0 5.95455V27.7727C0 29.2727 1.4 30.5 3.11111 30.5H24.8889C26.6 30.5 28 29.2727 28 27.7727V5.95455C28 4.45455 26.6 3.22727 24.8889 3.22727ZM7 4.59091H10.8889C10.8889 3.09091 12.2889 1.86364 14 1.86364C15.7111 1.86364 17.1111 3.09091 17.1111 4.59091H21V6.63636C21 7.04545 20.6889 7.31818 20.2222 7.31818H7.77778C7.31111 7.31818 7 7.04545 7 6.63636V4.59091ZM26.4444 27.7727C26.4444 28.5227 25.7444 29.1364 24.8889 29.1364H3.11111C2.25556 29.1364 1.55556 28.5227 1.55556 27.7727V5.95455C1.55556 5.20455 2.25556 4.59091 3.11111 4.59091H5.44444V7.31818C5.44444 8.06818 6.14444 8.68182 7 8.68182H21C21.8556 8.68182 22.5556 8.06818 22.5556 7.31818V4.59091H24.8889C25.7444 4.59091 26.4444 5.20455 26.4444 5.95455V27.7727ZM19.4444 18.2273H8.55556C8.08889 18.2273 7.77778 18.5 7.77778 18.9091C7.77778 19.3182 8.08889 19.5909 8.55556 19.5909H19.4444C19.9111 19.5909 20.2222 19.3182 20.2222 18.9091C20.2222 18.5 19.9111 18.2273 19.4444 18.2273ZM19.4444 13.4545H8.55556C8.08889 13.4545 7.77778 13.7273 7.77778 14.1364C7.77778 14.5455 8.08889 14.8182 8.55556 14.8182H19.4444C19.9111 14.8182 20.2222 14.5455 20.2222 14.1364C20.2222 13.7273 19.9111 13.4545 19.4444 13.4545Z" fill="white" fill-opacity="0.5"/>
</svg>
